<svg xmlns="http://www.w3.org/2000/svg" viewBox="0 0 500 500"><g id="freepik--Character--inject-1"><polygon points="381.76 452.53 381.98 440.34 403.19 439.08 403.19 453.99 395.57 458.82 381.76 452.53" style="fill:#ffceb0"></polygon><path d="M403.59,451.21l0,1.4s23.78,9.21,24.08,13.7l-47,.33.53-15.64C388.25,454.18,395.56,454.5,403.59,451.21Z" style="fill:#90CAF9"></path><g style="opacity:0.6000000000000001"><path d="M386,456a1.92,1.92,0,0,0-1.31,2.2,1.84,1.84,0,0,0,2.17,1.32,2,2,0,0,0,1.37-2.34,1.91,1.91,0,0,0-2.4-1.12" style="fill:#fff"></path></g><g style="opacity:0.6000000000000001"><path d="M380.71,466.64l.12-3.77,45,1.07s2.1.9,1.87,2.37Z" style="fill:#fff"></path></g><path d="M403.78,452.74c0,.23-1.16.34-2.28,1.08s-1.72,1.72-1.93,1.63.12-1.42,1.5-2.3S403.83,452.53,403.78,452.74Z" style="fill:#263238"></path><path d="M408.72,454.74c0,.22-.94.62-1.71,1.6s-1,2-1.22,2-.38-1.3.6-2.5S408.71,454.52,408.72,454.74Z" style="fill:#263238"></path><path d="M411.56,460.62c-.21.05-.54-1.09,0-2.35s1.65-1.77,1.75-1.58-.56.86-1,1.91S411.79,460.6,411.56,460.62Z" style="fill:#263238"></path><polygon points="324.04 421.61 319.51 457.55 336.22 458.59 344.58 424.11 324.04 421.61" style="fill:#ffceb0"></polygon><path d="M337.74,451.62S325,458.13,320.3,450.4l-1.92,3.19-9.83,23.19a3.22,3.22,0,0,0,1.35,4.11,3.29,3.29,0,0,0,3.47-.18c5.39-3.8,25.12-17.89,25.25-20.14l.72-5.92a3,3,0,0,0-1.6-3Z" style="fill:#90CAF9"></path><g style="opacity:0.6000000000000001"><path d="M310.45,481.13l28.45-22.61-.18,1.29c-.06,1.41-.76,1.88-1.56,2.69-2.38,2.39-8.77,7.58-23.69,18.23a3.31,3.31,0,0,1-3,.4Z" style="fill:#fff"></path></g><g style="opacity:0.6000000000000001"><path d="M335.75,454.18a1.88,1.88,0,0,0-.87,2.4,1.91,1.91,0,0,0,2.43.87,2,2,0,0,0,.91-2.53,2,2,0,0,0-2.63-.64" style="fill:#fff"></path></g><path d="M319.42,468.8c-.19.06-.67-1.63-2.41-2.74s-3.5-1-3.51-1.17.41-.26,1.15-.26a5.18,5.18,0,0,1,2.74.87,5,5,0,0,1,1.85,2.16C319.52,468.33,319.5,468.79,319.42,468.8Z" style="fill:#263238"></path><path d="M316.63,472.58c-.16.11-1-1-2.59-1.69s-3-.61-3-.8,1.53-.61,3.29.18S316.81,472.52,316.63,472.58Z" style="fill:#263238"></path><path d="M324.29,464.15c-.17.12-1.5-1.62-3.82-2.87s-4.52-1.49-4.5-1.69,2.36-.28,4.84,1.1S324.45,464.08,324.29,464.15Z" style="fill:#263238"></path><path d="M325.82,456.89c-.11.17-1.74-.77-4-1.16s-4.09-.1-4.13-.3,1.85-.8,4.25-.36S325.94,456.76,325.82,456.89Z" style="fill:#263238"></path><path d="M320.57,455.5a2.47,2.47,0,0,1,.33-1.12,8.06,8.06,0,0,1,1.86-2.6,3.72,3.72,0,0,1,2.05-1.14,1.32,1.32,0,0,1,1.3.72,2,2,0,0,1,0,1.47,4.55,4.55,0,0,1-5.11,2.68,5.28,5.28,0,0,1-4.1-4.17,1.81,1.81,0,0,1,.39-1.44,1.31,1.31,0,0,1,1.48-.21,4.5,4.5,0,0,1,1.64,1.64,8.79,8.79,0,0,1,1.29,2.93,2.58,2.58,0,0,1,.13,1.16A14.19,14.19,0,0,0,320,451.6a4.19,4.19,0,0,0-1.47-1.4.68.68,0,0,0-.8.11,1.17,1.17,0,0,0-.2,1,4.71,4.71,0,0,0,3.59,3.57,4,4,0,0,0,4.38-2.21,1.52,1.52,0,0,0,0-1,.71.71,0,0,0-.72-.41,3.34,3.34,0,0,0-1.74.93A11.81,11.81,0,0,0,320.57,455.5Z" style="fill:#263238"></path><path d="M415,281.59c-2.9-11.6-7-26.25-9.43-27.62l-4-7.47L339.37,254,338,257.42s-3.62,4.84-3.62,8.94-.13,11.08-1.3,14.94c-2.36,7.75-3.48,19.3-5.47,49.89l1.45,34.6L323.64,408c-1.21,10.88-2.92,30.24-2.92,30.24s10,12.25,20.43,5.24l16.54-57.13a125.73,125.73,0,0,0,3-12.84c3.15-17.76,13.05-67,13.05-67s6.12,68.56,6,72.25l-.14,6.66s-.13,50.28-.06,54.17l.08,5s23.95,4.28,24.57-1.13c.24-2.12,3.09-50.23,3.09-50.23L415,312.76S417.94,293.19,415,281.59Z" style="fill:#263238"></path><path d="M379.5,300.6a13.81,13.81,0,0,1-.06-1.78c0-1.23,0-2.86,0-4.84,0-4.09-.15-9.74-.52-16s-.93-11.85-1.39-15.92c-.23-2-.42-3.59-.57-4.81a11,11,0,0,1-.15-1.77,10.86,10.86,0,0,1,.36,1.74c.19,1.13.45,2.77.72,4.8.56,4.05,1.17,9.68,1.55,15.93s.43,11.9.37,16c0,2-.09,3.7-.15,4.85A10.62,10.62,0,0,1,379.5,300.6Z" style="fill:#455a64"></path><path d="M403.83,254a5,5,0,0,1-.63.28l-1.81.73c-.79.31-1.77.68-2.92,1s-2.44.85-3.91,1.24-3.06.89-4.81,1.28-3.61.8-5.58,1.19a113.14,113.14,0,0,1-13,1.51,110.34,110.34,0,0,1-13.09-.16c-2-.18-3.91-.33-5.68-.6s-3.42-.5-4.91-.77-2.84-.58-4-.83-2.19-.52-3-.75l-1.88-.53a5,5,0,0,1-.65-.22,2.94,2.94,0,0,1,.67.11l1.91.44c.82.2,1.83.44,3,.66s2.52.54,4,.75,3.13.52,4.91.71,3.66.38,5.66.55a116.27,116.27,0,0,0,13,.12,119.54,119.54,0,0,0,12.94-1.46c2-.38,3.85-.71,5.58-1.14s3.34-.81,4.8-1.21,2.77-.82,3.92-1.17,2.14-.68,2.94-1l1.85-.64A3.28,3.28,0,0,1,403.83,254Z" style="fill:#455a64"></path><path d="M409.24,286.87a2.1,2.1,0,0,1-.49.16l-1.44.34c-1.25.29-3.05.71-5.27,1.26-4.45,1.1-10.55,2.78-17.17,5s-12.47,4.65-16.66,6.5c-2.1.92-3.79,1.68-4.95,2.22l-1.35.61a2.62,2.62,0,0,1-.48.18s.14-.11.44-.28l1.3-.69c1.14-.6,2.81-1.41,4.89-2.38a175.36,175.36,0,0,1,16.65-6.66A172.16,172.16,0,0,1,402,288.28c2.24-.51,4.06-.88,5.32-1.11l1.46-.25A1.79,1.79,0,0,1,409.24,286.87Z" style="fill:#455a64"></path><path d="M403.3,296.2a6.47,6.47,0,0,1-1.39.09c-.9,0-2.2.08-3.8.22a50.85,50.85,0,0,0-12.21,2.63,56.48,56.48,0,0,0-6.34,2.69,52.22,52.22,0,0,0-4.87,2.82c-1.34.88-2.4,1.63-3.11,2.18a8.43,8.43,0,0,1-1.15.8,6.39,6.39,0,0,1,1-1,35.94,35.94,0,0,1,3-2.33,48.14,48.14,0,0,1,4.85-2.94,53.07,53.07,0,0,1,6.39-2.76,51.16,51.16,0,0,1,6.72-1.79,45.05,45.05,0,0,1,5.63-.7,34.56,34.56,0,0,1,3.83-.06A8,8,0,0,1,403.3,296.2Z" style="fill:#455a64"></path><path d="M351.61,386.5a11.44,11.44,0,0,1-2.79-.75A34,34,0,0,1,337,378.56a11.44,11.44,0,0,1-2-2.13,26.2,26.2,0,0,1,2.2,1.86,45,45,0,0,0,5.6,4,44,44,0,0,0,6.16,3.09A22.51,22.51,0,0,1,351.61,386.5Z" style="fill:#455a64"></path><path d="M397.7,379.74a20.61,20.61,0,0,1-4.19,1.82,19.66,19.66,0,0,1-4.37,1.34,20.29,20.29,0,0,1,4.19-1.82A19.49,19.49,0,0,1,397.7,379.74Z" style="fill:#455a64"></path><path d="M390.48,162.17a15.43,15.43,0,0,1-1.71-3.2c-.35-1.41.19-2.87.44-4.31a10.9,10.9,0,0,0-2.41-8.78h0c-3.06-3.52-8-4.64-10.61-.77L373.85,149c-1.28,1.52-1.32,3.72-1,5.69s.84,3.95.49,5.91c-.32,1.79-1.37,3.38-1.8,5.15-.66,2.72.21,5.59,1.39,8.13s2.69,5,3.4,7.67a5.36,5.36,0,0,0,3.84-4.63,6.22,6.22,0,0,0,8.56.7,8,8,0,0,0,2.38-4.35,22.78,22.78,0,0,0,.38-5A12.9,12.9,0,0,0,390.48,162.17Z" style="fill:#e0e0e0"></path><path d="M324.86,242.54a21.25,21.25,0,0,0,4-11.95l5.9-27s-4.16-33.06-16.49-35.15c0,0-5.36,2.62-6.6,12.73-.7,5.69-5.45,35-5.7,38.6l-17.41-8-8.55,13.43s13,13.41,23.18,20.74A15.48,15.48,0,0,0,324.86,242.54Z" style="fill:#90CAF9"></path><path d="M431.37,219.54c-3.19-8.66-21-46-23.69-51.07a22.65,22.65,0,0,0-7.81-8,26.05,26.05,0,0,0-9.52-3.78l-12.54-2.32-6.68-5.91-25.71,2.7L339,157.64s-19.17,7.94-21.15,11.45,17.68,44.3,18.16,47.15,2.46,15.79,2.67,20-5,14-1.75,16.88,41.67,3.07,43.86,2.19,19.08-4.82,20.83-8.77l.38-14.21,3.64,1.6s17.08,7.29,23.92,3.65S434.56,228.2,431.37,219.54Z" style="fill:#90CAF9"></path><polygon points="393.36 196.55 409.69 172.65 445.63 180.81 422.4 218.01 411.57 217.9 403.12 213.76 392.41 201.22 393.36 196.55" style="fill:#455a64"></polygon><g style="opacity:0.30000000000000004"><path d="M398.92,238.74c-3.44-2.65-7.84-3.71-12.15-4.21a55.85,55.85,0,0,0-17.73.78l.53.85a30.91,30.91,0,0,0,28.06,9.66,4.76,4.76,0,0,0,3.33-1.73C402.06,242.3,400.58,240,398.92,238.74Z"></path></g><polygon points="383.48 214.95 368.68 236.28 405.56 242.66 413.96 230.68 383.48 214.95" style="fill:#455a64"></polygon><polygon points="403.8 212.8 413.21 217.85 415.73 231.35 410.44 235.69 394.97 225.37 403.8 212.8" style="fill:#90CAF9"></polygon><path d="M345.47,150.27v11.22L363.25,178s9.11-13,9.11-13.76-1-16.6-1-16.6Z" style="fill:#ffceb0"></path><path d="M335.36,215a2,2,0,0,1-.22-.42c-.15-.34-.33-.74-.54-1.23-.46-1.08-1.08-2.65-1.81-4.61-1.48-3.91-3.39-9.36-5.68-15.3a108.92,108.92,0,0,0-6.77-14.81,41.73,41.73,0,0,0-2.68-4.12l-.82-1.07c-.19-.24-.28-.38-.26-.39s.13.1.34.32.54.61.9,1a33,33,0,0,1,2.84,4.07,95.57,95.57,0,0,1,6.94,14.8c2.29,6,4.14,11.43,5.53,15.36l1.66,4.66.45,1.27C335.34,214.79,335.38,214.94,335.36,215Z" style="fill:#263238"></path><path d="M359.7,177.47a13.14,13.14,0,0,1-1.34-1.13c-.86-.73-2.1-1.77-3.72-3-.81-.59-1.72-1.21-2.71-1.84a25.34,25.34,0,0,0-3.26-1.83,4.38,4.38,0,0,0-1.89-.34,3.15,3.15,0,0,0-1.79.74,5.58,5.58,0,0,0-1.84,3.76,21.56,21.56,0,0,0-.12,2.64l0,1.38-.49-1.29A54.71,54.71,0,0,1,339.31,163c-.17-1.76-.23-3.17-.24-4.15a8.14,8.14,0,0,1,.05-1.51,9.86,9.86,0,0,1,.14,1.5c.06,1,.18,2.38.4,4.12A58.76,58.76,0,0,0,343,176.42l-.5.09a19.41,19.41,0,0,1,.13-2.71,6,6,0,0,1,2-4.09,3.67,3.67,0,0,1,2.08-.84,4.72,4.72,0,0,1,2.1.4,23.43,23.43,0,0,1,3.31,1.91c1,.65,1.89,1.3,2.7,1.91a43.62,43.62,0,0,1,3.63,3.1c.41.4.72.71.92.93S359.71,177.45,359.7,177.47Z" style="fill:#263238"></path><path d="M363.25,178a12.64,12.64,0,0,1,.87-1c.57-.64,1.36-1.62,2.3-2.87,1.89-2.51,4.28-6.21,7.1-10.45l.14-.21.21.14,4.62,3.14,4.85,3.32-.39.25a39.85,39.85,0,0,0-3.82-11.72c-.69-1.37-1.32-2.43-1.76-3.16a7.45,7.45,0,0,1-.65-1.13,8.15,8.15,0,0,1,.8,1,33.6,33.6,0,0,1,1.9,3.1,38.09,38.09,0,0,1,4,11.79l.1.58-.49-.33-4.86-3.31L373.58,164l.35-.07c-2.82,4.21-5.28,7.9-7.26,10.36a31.84,31.84,0,0,1-2.43,2.8c-.29.31-.55.53-.71.68S363.26,178,363.25,178Z" style="fill:#263238"></path><path d="M373.23,229.73a1.85,1.85,0,0,1-.09-.51c0-.39-.08-.87-.13-1.45-.12-1.33-.28-3.13-.47-5.32-.41-4.5-1.07-10.7-2.2-17.49a133.08,133.08,0,0,0-3.93-17.17c-.32-1.08-.64-2-.94-2.89s-.54-1.58-.77-2.16-.37-1-.51-1.37a1.58,1.58,0,0,1-.14-.49,2.53,2.53,0,0,1,.24.45c.16.36.36.8.59,1.33s.55,1.3.86,2.14.67,1.8,1,2.88a116.58,116.58,0,0,1,4.09,17.19c1.14,6.81,1.74,13,2.06,17.55.16,2.25.26,4.08.3,5.34,0,.58,0,1.06,0,1.46A3,3,0,0,1,373.23,229.73Z" style="fill:#263238"></path><path d="M403.6,213.08l2.88-10.49,1.2-4L407.6,191s-3-1.71-4.2,3.44l-.93,3.93s-4,4.91-4.5,4.68l-2.71-1.24-1.07-6.43s-2.7-1.54-3.88-.88a3.51,3.51,0,0,0-1.92,2.81s-2.78.23-2,4.44c0,0-2.89-.12-2.72,4.14a3.3,3.3,0,0,0-1.36,3.61c.48,2.6,1.13,5.5,1.13,5.5s2.42,3.55,4.67,4.55,8.22,3.88,8.22,3.88Z" style="fill:#ffceb0"></path><path d="M390.31,202.6A7.94,7.94,0,0,1,389.1,200a7.79,7.79,0,0,1-.71-2.76,15.83,15.83,0,0,1,1.92,5.34Z" style="fill:#263238"></path><path d="M387.61,206a6.16,6.16,0,0,1-1-2.33,6.09,6.09,0,0,1-.45-2.47,6.44,6.44,0,0,1,.95,2.33A6.21,6.21,0,0,1,387.61,206Z" style="fill:#263238"></path><path d="M384.84,209.56c-.14,0-.47-.8-.73-1.85a4,4,0,0,1-.23-2c.13,0,.46.79.73,1.86S385,209.54,384.84,209.56Z" style="fill:#263238"></path><path d="M428.73,217.48a9.54,9.54,0,0,1-2.25.41,52.6,52.6,0,0,1-5.5.37c-2.15,0-4.1,0-5.51-.14a9.26,9.26,0,0,1-2.26-.27c0-.16,3.48,0,7.76-.11,2.14,0,4.08-.13,5.48-.21A10.62,10.62,0,0,1,428.73,217.48Z" style="fill:#263238"></path><path d="M315.81,227.4a27.86,27.86,0,0,0-4.62-4.85,27.1,27.1,0,0,0-5.91-3.13,5.33,5.33,0,0,1,2,.43,15.5,15.5,0,0,1,7.62,5.78A5.69,5.69,0,0,1,315.81,227.4Z" style="fill:#263238"></path><path d="M314.45,221.89a17.92,17.92,0,0,0-4.21-2.21,17.54,17.54,0,0,0-4.73-.52,2.9,2.9,0,0,1,1.4-.35,9.22,9.22,0,0,1,6.57,2C314.17,221.39,314.49,221.85,314.45,221.89Z" style="fill:#263238"></path><g style="opacity:0.30000000000000004"><path d="M306.16,219.88a12,12,0,0,1,6.4,3.66,26.63,26.63,0,0,1,4.18,6.19c.47.91,1.31,2,2.26,1.62s.91-1.4.78-2.25a11.7,11.7,0,0,0-14.28-9.62"></path></g><g style="opacity:0.30000000000000004"><path d="M363.25,178c4-2.17,7.66-4.4,10.5-8a3.12,3.12,0,0,1,1.67-1.32,2.93,2.93,0,0,1,1.78.47l8.44,4.33a21.17,21.17,0,0,0-5-12c1.07,2.22,2.52,8.72,2.52,8.72a88,88,0,0,0-7.27-5,19.86,19.86,0,0,0-2.21-1.42,5.61,5.61,0,0,0-1.11,1.72c-.32,1.38-6.26,8.8-9.36,12.47"></path></g><path d="M346.71,254.18a.64.64,0,0,1,0-.24c0-.19,0-.42,0-.7,0-.66,0-1.55.07-2.69,0-.58,0-1.23.06-1.93s0-1.48,0-2.31c0-1.66,0-3.54-.15-5.62q-.09-1.56-.18-3.27c-.07-1.13-.23-2.31-.34-3.52-.2-2.45-.63-5-1-7.75A137.74,137.74,0,0,0,341,208.74a135.64,135.64,0,0,0-6.58-16.65c-1.23-2.46-2.36-4.82-3.6-6.94-.61-1.06-1.16-2.11-1.75-3.08l-1.72-2.78c-1.06-1.79-2.18-3.32-3.1-4.69-.47-.68-.89-1.33-1.31-1.9l-1.16-1.55-1.6-2.16-.41-.57q-.14-.19-.12-.21l.16.18.45.53,1.68,2.11,1.2,1.52c.43.57.86,1.21,1.35,1.88.94,1.36,2.08,2.88,3.17,4.66l1.75,2.77c.61,1,1.17,2,1.78,3.08,1.26,2.12,2.41,4.48,3.67,6.94a134.17,134.17,0,0,1,6.64,16.7,135.56,135.56,0,0,1,4.14,17.49c.39,2.74.8,5.33,1,7.78.1,1.23.25,2.41.31,3.55s.1,2.23.15,3.27c.13,2.09.07,4,.07,5.64,0,.83,0,1.6,0,2.31S347,250,347,250.56c-.07,1.13-.13,2-.17,2.69,0,.28,0,.51-.05.69A.92.92,0,0,1,346.71,254.18Z" style="fill:#fff"></path><path d="M361.16,254.83a.7.7,0,0,1-.05-.25c0-.2-.07-.44-.11-.74-.09-.69-.21-1.65-.37-2.86s-.33-2.75-.61-4.51-.53-3.75-.95-5.95c-.19-1.1-.4-2.25-.61-3.45s-.5-2.44-.76-3.72c-.5-2.58-1.18-5.3-1.86-8.17-1.46-5.72-3.27-12-5.5-18.4s-4.74-12.43-7.16-17.81c-1.26-2.68-2.42-5.23-3.64-7.56-.6-1.16-1.15-2.31-1.73-3.38s-1.13-2.1-1.67-3.08c-1-2-2.09-3.71-3-5.25s-1.67-2.85-2.33-3.91l-1.49-2.46-.38-.64a1,1,0,0,1-.11-.23s.06.06.16.2l.42.62,1.58,2.41c.68,1,1.51,2.33,2.41,3.86s2,3.25,3,5.22c.55,1,1.12,2,1.71,3.07s1.15,2.21,1.76,3.38c1.23,2.32,2.41,4.87,3.68,7.55,2.46,5.38,4.95,11.4,7.22,17.84s4,12.71,5.48,18.45c.67,2.88,1.33,5.61,1.81,8.2.26,1.29.53,2.53.73,3.74s.4,2.36.59,3.46c.39,2.2.62,4.21.87,6s.41,3.28.53,4.53.2,2.17.26,2.87l.06.75A.81.81,0,0,1,361.16,254.83Z" style="fill:#fff"></path><path d="M370.58,255.16a.77.77,0,0,1,0-.23c0-.18-.05-.4-.08-.67-.06-.63-.15-1.5-.25-2.59s-.23-2.5-.43-4.09-.37-3.41-.68-5.4-.59-4.19-1-6.52-.89-4.83-1.41-7.44c-1.12-5.22-2.53-10.91-4.3-16.81S358.6,200,356.64,195c-1-2.46-2-4.82-2.95-7s-1.9-4.17-2.77-6-1.71-3.44-2.43-4.88-1.37-2.65-1.92-3.64l-1.22-2.29-.31-.6c-.07-.14-.1-.21-.09-.22a.71.71,0,0,1,.14.19c.09.16.21.35.35.58l1.31,2.25c.57,1,1.25,2.17,2,3.6s1.64,3,2.51,4.85,1.87,3.79,2.83,6,2,4.51,3,7c2,5,4,10.5,5.8,16.4s3.17,11.63,4.27,16.86c.5,2.63,1,5.12,1.36,7.47s.7,4.54.95,6.54.44,3.83.61,5.42.27,3,.34,4.11.12,2,.15,2.6c0,.27,0,.49,0,.67A.82.82,0,0,1,370.58,255.16Z" style="fill:#fff"></path><path d="M378.68,237.72a9.4,9.4,0,0,1,.89,2.3,41.24,41.24,0,0,1,1.87,11.73,10.05,10.05,0,0,1-.13,2.47,13.18,13.18,0,0,1-.23-2.45c-.11-1.51-.31-3.59-.67-5.87s-.82-4.31-1.19-5.78A15.74,15.74,0,0,1,378.68,237.72Z" style="fill:#fff"></path><path d="M389.88,239.91a14.5,14.5,0,0,1,1.74,5.75,14.71,14.71,0,0,1-.23,6c-.17,0,.14-2.69-.29-6S389.73,240,389.88,239.91Z" style="fill:#fff"></path><path d="M368.29,171.44s.09.15.22.47.32.82.53,1.38c.45,1.2,1.06,3,1.76,5.14a178.41,178.41,0,0,1,4.63,17.32c1.47,6.86,2.39,13.14,2.89,17.71.25,2.28.42,4.13.5,5.41,0,.59.06,1.08.09,1.48a1.83,1.83,0,0,1,0,.51,1.91,1.91,0,0,1-.1-.51c-.05-.39-.11-.87-.18-1.46-.14-1.27-.37-3.12-.67-5.39-.59-4.54-1.56-10.8-3-17.64s-3.15-12.94-4.47-17.32c-.66-2.2-1.21-4-1.6-5.19-.18-.56-.32-1-.44-1.41A3,3,0,0,1,368.29,171.44Z" style="fill:#fff"></path><path d="M385.05,199a7,7,0,0,1-.47-1.34c-.3-1-.67-2.22-1.12-3.72-.95-3.14-2.27-7.47-3.83-12.22s-3.07-9-4.17-12.1l-1.3-3.66a7,7,0,0,1-.42-1.36,7.05,7.05,0,0,1,.61,1.29c.36.84.86,2.07,1.45,3.6,1.2,3.06,2.76,7.31,4.32,12.07s2.84,9.11,3.69,12.28c.43,1.58.75,2.87,1,3.76A8.59,8.59,0,0,1,385.05,199Z" style="fill:#fff"></path><path d="M380.45,155.09a8.74,8.74,0,0,1,.71,1.45c.43,1,1,2.34,1.72,4.07,1.4,3.45,3.19,8.27,4.91,13.69s3,10.4,3.87,14c.43,1.81.74,3.29.94,4.31a10.41,10.41,0,0,1,.26,1.6,8.78,8.78,0,0,1-.46-1.56c-.28-1.09-.65-2.53-1.09-4.26-.94-3.6-2.3-8.55-4-14s-3.46-10.24-4.76-13.72c-.64-1.68-1.16-3.06-1.56-4.12A10.56,10.56,0,0,1,380.45,155.09Z" style="fill:#fff"></path><path d="M399.9,187.19a6.24,6.24,0,0,1-.31-1.24c-.15-.8-.39-2-.71-3.38a99.59,99.59,0,0,0-3.13-10.94,94.58,94.58,0,0,0-4.43-10.49c-.64-1.31-1.18-2.36-1.56-3.08a6.72,6.72,0,0,1-.54-1.16,6.25,6.25,0,0,1,.72,1.06c.43.69,1,1.72,1.71,3a78.18,78.18,0,0,1,4.59,10.48,79.93,79.93,0,0,1,3,11c.27,1.44.46,2.61.55,3.43A7,7,0,0,1,399.9,187.19Z" style="fill:#fff"></path><path d="M379.05,160.22a9.23,9.23,0,0,0-6.68-1.84c0-.06.36-.26,1-.38a6.23,6.23,0,0,1,5,1.37C378.87,159.81,379.09,160.17,379.05,160.22Z" style="fill:#fff"></path><path d="M375.21,151.93c0,.14-.72.47-1.68.73s-1.78.37-1.81.23.71-.46,1.67-.73S375.17,151.8,375.21,151.93Z" style="fill:#fff"></path><path d="M345.67,162.71a20.88,20.88,0,0,0-2.78,2.2,21.28,21.28,0,0,0-2,2.94,6.31,6.31,0,0,1,4.76-5.14Z" style="fill:#fff"></path><path d="M344.58,154.29c.09.13-1.51,1.28-2.92,3.2s-2.07,3.78-2.22,3.73a8,8,0,0,1,1.8-4A8.21,8.21,0,0,1,344.58,154.29Z" style="fill:#fff"></path><path d="M309.59,218.37a8.82,8.82,0,0,1,.45-1.64c.33-1,.78-2.57,1.31-4.45a129.57,129.57,0,0,0,3.21-14.93,125.75,125.75,0,0,0,1.34-15.21c.05-2,.07-3.54.06-4.64a9.4,9.4,0,0,1,.06-1.7,12.33,12.33,0,0,1,.14,1.7c.07,1.09.11,2.68.11,4.64a106.07,106.07,0,0,1-4.57,30.24c-.58,1.88-1.08,3.39-1.47,4.41A11.28,11.28,0,0,1,309.59,218.37Z" style="fill:#fff"></path><path d="M309.77,222.27a3,3,0,0,1-.95,0c-.62,0-1.5-.11-2.59-.26a42.12,42.12,0,0,1-8.3-2.09,41.41,41.41,0,0,1-7.71-3.76,24.83,24.83,0,0,1-2.14-1.46,3.35,3.35,0,0,1-.73-.62c0-.07,1.17.69,3.06,1.77a49.34,49.34,0,0,0,15.88,5.79C308.43,222.05,309.78,222.19,309.77,222.27Z" style="fill:#fff"></path><path d="M326.78,194.21a5,5,0,0,1,.13.82c.07.55.18,1.34.25,2.38a66.13,66.13,0,0,1,.12,8.79,69.11,69.11,0,0,1-1.86,12.9,71,71,0,0,1-2.19,7.4,25.73,25.73,0,0,1-3.74,7.41,9,9,0,0,1-3.34,2.66A7,7,0,0,1,312,237c-2.72-.54-4.89-2.12-6.91-3.48l-10.71-7.39-7.21-5-1.94-1.39a5.91,5.91,0,0,1-.66-.51,4.46,4.46,0,0,1,.72.43l2,1.3,7.29,4.89c3.09,2.08,6.74,4.55,10.78,7.3,2,1.35,4.17,2.87,6.73,3.37a6.6,6.6,0,0,0,3.84-.42,8.56,8.56,0,0,0,3.14-2.52,25.31,25.31,0,0,0,3.66-7.26A72.69,72.69,0,0,0,325,219a71.46,71.46,0,0,0,2-12.81,73.69,73.69,0,0,0,0-8.76c0-1-.12-1.83-.15-2.38A4.34,4.34,0,0,1,326.78,194.21Z" style="fill:#fff"></path><path d="M432.19,228.92s-.09.09-.29.22a8.29,8.29,0,0,1-.89.53A14.05,14.05,0,0,1,427.4,231a21.72,21.72,0,0,1-12.46-1.17,44,44,0,0,1-10.8-6.47c-1.27-1-2.27-1.82-3-2.41a7.23,7.23,0,0,1-1-1,6.87,6.87,0,0,1,1.16.79l3.05,2.27a48,48,0,0,0,10.77,6.28,22.36,22.36,0,0,0,12.2,1.3A21.38,21.38,0,0,0,432.19,228.92Z" style="fill:#fff"></path><path d="M430.12,218.29a4,4,0,0,1-.95.69,19,19,0,0,1-2.85,1.43A21.09,21.09,0,0,1,406.16,218a18.82,18.82,0,0,1-2.44-2.07,4.48,4.48,0,0,1-.76-.89c.07-.07,1.19,1.17,3.41,2.65a21.81,21.81,0,0,0,19.82,2.36C428.69,219.15,430.07,218.2,430.12,218.29Z" style="fill:#fff"></path><path d="M273,207.68a5.58,5.58,0,0,1-.89,0l1-.57L255.43,203a3.3,3.3,0,0,0,2.69,3,20.4,20.4,0,0,1,3.44,1.18c-5.63-.3-11.21-.63-11.21-.63s-.73,1.35,1.28,2.42a54,54,0,0,0,6.9,2.53l-8.18,1a10.28,10.28,0,0,0,5.57,1.6c3.59.11,5.66,0,5.66,0l-7.95,3.24a9,9,0,0,0,5.77.9c3.06-.65,17.36-.7,17.36-.7Z" style="fill:#ffceb0"></path><rect x="155.49" y="184.92" width="108.88" height="44.22" style="fill:#fff"></rect><path d="M264.37,229.14s0-.27,0-.79,0-1.3,0-2.3c0-2,0-5-.05-8.81,0-7.64-.06-18.67-.1-32.32l.18.18-108.87.08h0l.26-.26c0,15.48,0,30.43,0,44.22l-.25-.25,78,.12,22.66.07,6.07,0,1.57,0h.55l-.52,0h-1.54l-6,0-22.6.06-78.2.12h-.25v-.25c0-13.79,0-28.74,0-44.22v-.26h.26l108.87.07h.19v.19c0,13.7-.08,24.77-.1,32.43,0,3.8,0,6.75-.05,8.77,0,1,0,1.74,0,2.26S264.37,229.14,264.37,229.14Z" style="fill:#90CAF9"></path><rect x="164.74" y="195.05" width="26.3" height="26.3" style="fill:#90CAF9"></rect><path d="M256.83,205.12c0,.09-13.53.17-30.22.17s-30.23-.08-30.23-.17,13.53-.17,30.23-.17S256.83,205,256.83,205.12Z" style="fill:#90CAF9"></path><path d="M256.83,210.48c0,.09-13.53.17-30.22.17s-30.23-.08-30.23-.17,13.53-.18,30.23-.18S256.83,210.38,256.83,210.48Z" style="fill:#90CAF9"></path><path d="M235.3,215.83a1.6,1.6,0,0,1-.4,0l-1.13,0-4.17,0-13.76.05L202.08,216l-4.17,0-1.13,0a1.6,1.6,0,0,1-.4,0,2.12,2.12,0,0,1,.4,0l1.13,0,4.17-.06,13.76-.05,13.76.05,4.17.06,1.13,0A2.12,2.12,0,0,1,235.3,215.83Z" style="fill:#90CAF9"></path><path d="M288.13,212.54,276,203.65l-17-4.74s-.82.83,1.19,3.27,8.6,5.12,8.6,5.12a10.3,10.3,0,0,0-.57,3.91,9.28,9.28,0,0,0,9.1,7.45h1.09l2.39,5.42Z" style="fill:#ffceb0"></path><path d="M261,203c0-.06.79.46,2.08,1.16s3.11,1.56,5.11,2.57c.23.12.46.23.67.35l.18.09-.05.2a12,12,0,0,0-.13,5.09c.25,1.28.56,2,.49,2.06a4.94,4.94,0,0,1-.83-2,10.83,10.83,0,0,1,0-5.29l.13.29-.66-.34c-2-1-3.82-1.92-5.07-2.72A6.84,6.84,0,0,1,261,203Z" style="fill:#eb996e"></path><path d="M384.07,144.53a2.9,2.9,0,0,0,.28-1.68,1.4,1.4,0,0,0-1.12-1.17,2.34,2.34,0,0,0-1.34.45,23.45,23.45,0,0,1-8.34,2.84l-.1.12a1.33,1.33,0,0,0,0,1.31,2.79,2.79,0,0,0,1,1,6.55,6.55,0,0,0,9.67-2.84Z" style="fill:#90CAF9"></path><path d="M352.73,125.56c-.87-4.54-2-9.25-4.91-12.79a14.38,14.38,0,0,0-19.89-2.13l-2.17,1.61a58.51,58.51,0,0,0-1.6,17.75c.21,3.47,2.11,6.95,4.4,9.57,1.1,1.26,2.6,2.17,3.5,3.59.8,1.25,1,2.78,1.66,4.12,2,4.28,8,5.7,12.24,3.67s6.88-6.63,7.66-11.3S353.62,130.21,352.73,125.56Z" style="fill:#e0e0e0"></path><path d="M349.17,97.75c-8.46.52-14.46-2.7-19,.54-1.94,1.37-10.37,6.74-10.24,8.74s3.36,3.62,8.53,4.64L371.54,109c5-1.65,7.94-3.64,7.82-5.63C379.11,99.26,365.59,96.74,349.17,97.75Z" style="fill:#90CAF9"></path><g style="opacity:0.4"><path d="M331.25,111.36c-4.59-.91-7.57-2.35-7.57-4.12,0-4.93,11.4-7.33,26-8.23s26.54,1.35,26.76,5c.11,1.76-2.54,3.52-6.93,5"></path></g><path d="M369.06,107.56a20.16,20.16,0,0,0-22.35-18.39c-10.72,1.2-18.43,11-17.83,21.76.54,9.44,1.28,18.93,2,22.28,2.25,10.1,9,12.8,11.64,13.49a13.86,13.86,0,0,0,2.81.1.07.07,0,0,1,.07.07L345.6,159l26.25-2.19Z" style="fill:#ffceb0"></path><path d="M332.76,117.68a1.64,1.64,0,0,0,1.68,1.56,1.56,1.56,0,0,0,1.6-1.58,1.64,1.64,0,0,0-1.68-1.56A1.56,1.56,0,0,0,332.76,117.68Z" style="fill:#263238"></path><path d="M331.79,113.18c.22.21,1.41-.79,3.17-.89s3.12.7,3.3.47-.15-.48-.74-.85a4.48,4.48,0,0,0-2.65-.65,4.38,4.38,0,0,0-2.51,1C331.85,112.7,331.69,113.09,331.79,113.18Z" style="fill:#263238"></path><path d="M348.82,116.49A1.64,1.64,0,0,0,350.5,118a1.57,1.57,0,0,0,1.61-1.58,1.65,1.65,0,0,0-1.69-1.56A1.58,1.58,0,0,0,348.82,116.49Z" style="fill:#263238"></path><path d="M349.17,112.45c.22.2,1.41-.8,3.17-.9s3.12.7,3.3.47-.15-.47-.74-.85a4.56,4.56,0,0,0-2.65-.64,4.31,4.31,0,0,0-2.51,1C349.23,112,349.07,112.36,349.17,112.45Z" style="fill:#263238"></path><path d="M343.57,125.94a12,12,0,0,0-2.9-.34c-.46,0-.89-.08-1-.39a2.29,2.29,0,0,1,.21-1.35c.36-1.12.74-2.29,1.13-3.52,1.55-5,2.64-9.1,2.44-9.16s-1.62,3.94-3.17,8.94c-.38,1.24-.73,2.41-1.07,3.54a2.61,2.61,0,0,0-.13,1.78,1.14,1.14,0,0,0,.79.61,3.09,3.09,0,0,0,.77.06A11.57,11.57,0,0,0,343.57,125.94Z" style="fill:#263238"></path><path d="M345.42,146.8s6.85.14,15.07-5.51c0,0-2.14,9.18-15,8.77Z" style="fill:#eb996e"></path><path d="M344.57,130.15a3.2,3.2,0,0,1,2.78-1.36,2.93,2.93,0,0,1,2.08,1,1.85,1.85,0,0,1,.27,2.09,2.14,2.14,0,0,1-2.28.73,6.7,6.7,0,0,1-2.34-1.21,2,2,0,0,1-.54-.49.61.61,0,0,1,0-.66" style="fill:#eb996e"></path><path d="M348.84,126.84c-.29,0-.18,1.92-1.73,3.38s-3.61,1.38-3.61,1.65c0,.12.48.34,1.34.31a4.77,4.77,0,0,0,3-1.26,4.2,4.2,0,0,0,1.33-2.83C349.21,127.28,349,126.82,348.84,126.84Z" style="fill:#263238"></path><path d="M348.17,106.93c.2.47,1.95.13,4,.25s3.8.59,4.05.14c.11-.21-.21-.65-.92-1.07a6.69,6.69,0,0,0-3-.86,6.81,6.81,0,0,0-3.12.56C348.44,106.3,348.08,106.7,348.17,106.93Z" style="fill:#e0e0e0"></path><path d="M332.16,108.6c.34.38,1.53-.11,3-.22s2.72.1,3-.34c.11-.21-.11-.6-.67-.94a4.35,4.35,0,0,0-4.81.44C332.16,108,332,108.41,332.16,108.6Z" style="fill:#e0e0e0"></path><path d="M371.23,103.74a8.78,8.78,0,0,0-.57-3.18c-1-2.22-3.65-3.14-6-3.64-6.78-1.4-13.77-1.19-20.68-1l-2.71,1.83a11.31,11.31,0,0,0,8.6,4.31c2.18,0,4.62-.49,6.34.83,1.26,1,1.7,2.64,2.32,4.1.95,2.22,1.06,5,3.24,6.1,1.7.83,3,.45,4.27,1.85s1.71,3.72,1.87,5.71.52,5.13,2.36,5.89C369.85,119.32,371.61,111,371.23,103.74Z" style="fill:#e0e0e0"></path><path d="M323.86,104.84S327,87.1,327.35,86.23s4.82-8.84,16.6-11.75l9.84-.61s14.25,3.64,17,6.89,4.87,19.7,4.87,19.7l-28-4.31-18.49,5.73Z" style="fill:#90CAF9"></path><path d="M347.05,72.27l-2.72.17a2.78,2.78,0,0,0-2.46,1.83,8.69,8.69,0,0,0-.46,2.81c0,3.07.59,24.1.59,24.1l12.3-1.31-2-25.91,4.25.68-.12-.76a2.27,2.27,0,0,0-.6-1.22h0a2.22,2.22,0,0,0-1.71-.68Z" style="fill:#90CAF9"></path><path d="M327.43,106.38l.92-6.16L347.28,93l23.61,5.41.42,6.83S351.31,98.67,327.43,106.38Z" style="fill:#455a64"></path><path d="M330.13,98.29l-.77.84-6.21,5.26a89.47,89.47,0,0,1,25.7-5.72c13.29-.68,28.77,2.88,28.77,2.88l-9.13-4.76h0a15.18,15.18,0,0,0-11.07-4.14l-16.7.7A15.12,15.12,0,0,0,330.13,98.29Z" style="fill:#90CAF9"></path><path d="M325.06,104.52s.12-.16.39-.39a7.79,7.79,0,0,1,1.29-.93A24.54,24.54,0,0,1,332.1,101,62.21,62.21,0,0,1,351,98.67c3.71,0,7.27,0,10.51.26a79.38,79.38,0,0,1,8.51,1.26c1.2.25,2.27.54,3.2.83a5.5,5.5,0,0,1,2.27,1.14,2.28,2.28,0,0,1,.72,1.45.89.89,0,0,1-.1.55,2.27,2.27,0,0,0-.81-1.79,5.45,5.45,0,0,0-2.19-1c-.93-.25-2-.49-3.19-.71-2.38-.42-5.28-.84-8.46-1.09s-6.74-.17-10.47-.21a67.36,67.36,0,0,0-18.79,2.06,27.65,27.65,0,0,0-5.36,2C325.67,104.06,325.12,104.59,325.06,104.52Z" style="fill:#263238"></path><path d="M327.46,106.18c-.92,5.63-6.87,14.88,2.5,19.84,0,0-.64-12,.05-16.75a9.59,9.59,0,0,1,1.27-4" style="fill:#e0e0e0"></path><path d="M382.43,122.29c-.68-1.2-1.74-2.18-2.22-3.47a15,15,0,0,1-.43-4.2,10.52,10.52,0,0,0-11.19-9.28l2.75,42.48c7.19-.44,13-9.77,13.46-16.25A19.81,19.81,0,0,0,382.43,122.29Z" style="fill:#e0e0e0"></path><path d="M373,142.21a4.59,4.59,0,0,1-4.29-.14,8.45,8.45,0,0,1-3.09-3.16,15,15,0,0,1-.83-13.78,22,22,0,0,1-5.59-20l10.32.29Z" style="fill:#e0e0e0"></path><path d="M323,103.31a2.2,2.2,0,0,0,.52-.31l1.44-1c1.28-.89,3.06-2.12,5.25-3.62l0,0,0,0,1.14-1.73a9.37,9.37,0,0,1,1.32-1.77,5.69,5.69,0,0,1,2-1.22,10,10,0,0,1,2.46-.42c3.47-.32,7.31-.51,11.33-.64,3.75-.12,7.33-.17,10.62-.2a7.14,7.14,0,0,1,2.33.22,5.63,5.63,0,0,1,1.94,1c1.06,1,2,2,3,2.87l0,0,0,0,6.74,2.67,1.85.7a3,3,0,0,0,.66.22,4.58,4.58,0,0,0-.63-.3L373.19,99l-6.68-2.81.05,0c-.92-.91-1.85-1.9-3-2.93a5.78,5.78,0,0,0-2.06-1.11A7.43,7.43,0,0,0,359.1,92c-3.29,0-6.88.06-10.63.17-4,.13-7.87.33-11.36.68a10,10,0,0,0-2.55.46,5.92,5.92,0,0,0-2.09,1.32,9.48,9.48,0,0,0-1.36,1.84c-.38.61-.76,1.19-1.11,1.75l0,0-5.17,3.74-1.39,1A3.21,3.21,0,0,0,323,103.31Z" style="fill:#263238"></path><path d="M353.73,92.23a3.1,3.1,0,0,0,0-.87c0-.55-.05-1.36-.11-2.35-.11-2-.3-4.71-.54-7.73-.12-1.51-.23-2.94-.34-4.26-.06-.65-.11-1.27-.17-1.86a.79.79,0,0,1,.79-.87l2.32.3a3.37,3.37,0,0,0,.87,0,3.32,3.32,0,0,0-.84-.22c-.55-.11-1.32-.27-2.33-.44a1.12,1.12,0,0,0-1.17,1.21c0,.59.08,1.21.13,1.86.09,1.32.2,2.76.31,4.26.23,3,.47,5.75.66,7.73.1,1,.18,1.78.25,2.34A3.43,3.43,0,0,0,353.73,92.23Z" style="fill:#263238"></path><path d="M341.78,92.72a13,13,0,0,0,.22-2.58c.05-1.59,0-3.8-.05-6.23s-.15-4.63-.23-6.23a15.13,15.13,0,0,0-.22-2.57,15.19,15.19,0,0,0-.09,2.58c0,1.6,0,3.8.11,6.23s.12,4.49.17,6.22A18.36,18.36,0,0,0,341.78,92.72Z" style="fill:#263238"></path><path d="M390,126.57a5.63,5.63,0,0,0-4.42-4.44,3.23,3.23,0,0,0-1.29-4.32c-1-.53-2.3-.45-3.33-1a5,5,0,0,1-2.19-3.24,21.25,21.25,0,0,0-1.09-3.88,3.5,3.5,0,0,0-3.1-2.19l-7,28.44a10.85,10.85,0,0,0,19,4.59c1.91-2.32,2.7-6,.78-8.29A5.63,5.63,0,0,0,390,126.57Z" style="fill:#e0e0e0"></path><path d="M382.37,117.54c-.06,0-.11-.42-.41-1.11a4.65,4.65,0,0,0-2.16-2.18,12.75,12.75,0,0,0-4.56-1.07c-1.79-.17-3.79-.16-5.89-.52a10,10,0,0,1-3-1A13.26,13.26,0,0,1,364,110a31.82,31.82,0,0,1-3.34-3.51c-.88-1.05-1.57-1.92-2-2.53a4.77,4.77,0,0,1-.69-1,31,31,0,0,1,3.05,3.22,38.34,38.34,0,0,0,3.38,3.37,13.46,13.46,0,0,0,2.27,1.58,9.62,9.62,0,0,0,2.81.88c2,.36,4,.37,5.83.57a12.45,12.45,0,0,1,4.71,1.25,4.61,4.61,0,0,1,2.17,2.47A2.47,2.47,0,0,1,382.37,117.54Z" style="fill:#fff"></path><path d="M389.37,129.2c-.06,0-.15-.56-.58-1.51a9.55,9.55,0,0,0-2.69-3.38,16.81,16.81,0,0,0-5.74-3c-2.34-.75-5-1.24-7.77-2.15a19.87,19.87,0,0,1-7-4.07,34.25,34.25,0,0,1-4.46-4.9c-1.14-1.5-2-2.77-2.56-3.65a8.77,8.77,0,0,1-.83-1.4,8.27,8.27,0,0,1,1,1.27c.63.84,1.52,2.06,2.7,3.51a35.53,35.53,0,0,0,4.48,4.75,20,20,0,0,0,6.86,3.92c2.68.9,5.38,1.4,7.75,2.2a16.32,16.32,0,0,1,5.84,3.15A9.23,9.23,0,0,1,389,127.6a5.6,5.6,0,0,1,.32,1.18C389.38,129.06,389.39,129.2,389.37,129.2Z" style="fill:#fff"></path><path d="M324.55,121.7a8.34,8.34,0,0,1,.32-2.4,43.79,43.79,0,0,1,1.58-5.6,43.17,43.17,0,0,1,2.27-5.36,8.3,8.3,0,0,1,1.25-2.07c.16.08-1.47,3.37-3,7.63S324.73,121.73,324.55,121.7Z" style="fill:#fff"></path><path d="M356.93,114c.13,0-.1.68-.81,1s-1.31,0-1.25-.15.53-.12,1.06-.33S356.8,113.89,356.93,114Z" style="fill:#eb996e"></path><path d="M357,116.06c-.08.13-.59,0-1.23-.16s-1.18-.12-1.21-.26.56-.38,1.3-.25S357.07,116,357,116.06Z" style="fill:#eb996e"></path><path d="M352.11,126.46c-.13.08-.53-.36-1.18-.63s-1.23-.29-1.26-.44.67-.39,1.47,0S352.24,126.4,352.11,126.46Z" style="fill:#eb996e"></path><path d="M332,117.35c0,.13-.43.12-.87,0s-.76-.38-.71-.52.43-.13.87,0S332,117.21,332,117.35Z" style="fill:#eb996e"></path><path d="M331.32,118.29c.08.12-.13.39-.52.46s-.68-.11-.64-.25.28-.21.55-.26S331.24,118.17,331.32,118.29Z" style="fill:#eb996e"></path><path d="M364.14,155a23,23,0,0,1,.16-4.83,3.64,3.64,0,0,0-.17-1.72,11.21,11.21,0,0,1-.69-1.39,1.35,1.35,0,0,1,.13-1.11c.17-.23.34-.25.35-.23s-.09.13-.17.33a1.29,1.29,0,0,0,0,.9c.14.37.49.74.77,1.3a3.8,3.8,0,0,1,.26,2A22,22,0,0,1,364.14,155Z" style="fill:#eb996e"></path></g></svg>