<svg xmlns="http://www.w3.org/2000/svg" viewBox="0 0 500 500"><g id="freepik--background-simple--inject-34"><path d="M249.73,103.39c-74.56,35.44-8.31,95.43-51.57,129.37s-158.87-2.64-115.91,83c50.46,100.61,278.55,82.87,329.62-42.34S324.29,67.94,249.73,103.39Z" style="fill:#407BFF"></path><path d="M249.73,103.39c-74.56,35.44-8.31,95.43-51.57,129.37s-158.87-2.64-115.91,83c50.46,100.61,278.55,82.87,329.62-42.34S324.29,67.94,249.73,103.39Z" style="fill:#fff;opacity:0.9"></path></g><g id="freepik--Shadow--inject-34"><ellipse id="freepik--path--inject-34" cx="250" cy="416.24" rx="193.89" ry="11.32" style="fill:#f5f5f5"></ellipse></g><g id="freepik--Machine--inject-34"><rect x="142.96" y="390.12" width="221.07" height="27.24" style="fill:#263238"></rect><rect x="142.96" y="390.12" width="221.07" height="27.24" style="fill:#fff;opacity:0.5"></rect><polygon points="364.03 417.36 142.96 417.36 157.97 390.12 167.63 406.73 331.78 406.73 340.61 390.12 364.03 417.36" style="opacity:0.2"></polygon><polygon points="142.86 296.8 105.36 296.8 66.24 417.62 162.42 417.62 142.86 296.8" style="fill:#263238"></polygon><polygon points="142.86 296.8 105.36 296.8 66.24 417.62 162.42 417.62 142.86 296.8" style="fill:#fff;opacity:0.5"></polygon><polygon points="105.36 296.8 107.76 417.1 162.42 417.62 142.86 296.8 105.36 296.8" style="fill:#fff;opacity:0.2"></polygon><polygon points="158.97 414.65 110.64 414.19 110.51 408.02 110.46 405.53 110.36 400.31 110.31 397.82 110.21 392.6 110.16 390.12 110.05 384.89 110 382.41 109.9 377.19 109.85 374.7 109.75 369.48 109.7 366.99 109.59 361.77 109.54 359.28 109.44 354.06 109.39 351.58 109.29 346.36 109.24 343.87 109.13 338.65 109.08 336.17 108.98 330.94 108.92 328.45 108.83 323.23 108.78 320.75 108.67 315.52 108.62 313.04 108.52 307.82 108.47 305.33 108.36 299.74 140.36 299.74 158.97 414.65" style="opacity:0.30000000000000004"></polygon><polygon points="139.18 305.33 139.18 307.82 108.52 307.82 108.47 305.33 139.18 305.33" style="fill:#fff;opacity:0.2"></polygon><polygon points="140.44 313.04 140.44 315.52 108.67 315.52 108.62 313.04 140.44 313.04" style="fill:#fff;opacity:0.2"></polygon><polygon points="141.7 320.75 141.7 323.23 108.83 323.23 108.78 320.75 141.7 320.75" style="fill:#fff;opacity:0.2"></polygon><polygon points="142.96 328.45 142.96 330.94 108.98 330.94 108.92 328.45 142.96 328.45" style="fill:#fff;opacity:0.2"></polygon><polygon points="144.22 336.17 144.22 338.65 109.13 338.65 109.08 336.17 144.22 336.17" style="fill:#fff;opacity:0.2"></polygon><polygon points="145.48 343.87 145.48 346.36 109.29 346.36 109.24 343.87 145.48 343.87" style="fill:#fff;opacity:0.2"></polygon><polygon points="146.74 351.58 146.74 354.06 109.44 354.06 109.39 351.58 146.74 351.58" style="fill:#fff;opacity:0.2"></polygon><polygon points="147.99 359.28 147.99 361.77 109.59 361.77 109.54 359.28 147.99 359.28" style="fill:#fff;opacity:0.2"></polygon><polygon points="149.25 366.99 149.25 369.48 109.75 369.48 109.7 366.99 149.25 366.99" style="fill:#fff;opacity:0.2"></polygon><polygon points="150.52 374.7 150.52 377.19 109.9 377.19 109.85 374.7 150.52 374.7" style="fill:#fff;opacity:0.2"></polygon><polygon points="151.78 382.41 151.78 384.89 110.05 384.89 110 382.41 151.78 382.41" style="fill:#fff;opacity:0.2"></polygon><polygon points="153.04 390.12 153.04 392.6 110.21 392.6 110.16 390.12 153.04 390.12" style="fill:#fff;opacity:0.2"></polygon><polygon points="154.3 397.82 154.3 400.31 110.36 400.31 110.31 397.82 154.3 397.82" style="fill:#fff;opacity:0.2"></polygon><polygon points="155.56 405.53 155.56 408.02 110.51 408.02 110.46 405.53 155.56 405.53" style="fill:#fff;opacity:0.2"></polygon><polygon points="356.72 296.8 394.22 296.8 433.34 417.62 337.16 417.62 356.72 296.8" style="fill:#263238"></polygon><polygon points="356.72 296.8 394.22 296.8 433.34 417.62 337.16 417.62 356.72 296.8" style="fill:#fff;opacity:0.5"></polygon><polygon points="394.22 296.8 391.82 417.1 337.16 417.62 356.72 296.8 394.22 296.8" style="fill:#fff;opacity:0.2"></polygon><polygon points="340.61 414.65 388.94 414.19 389.07 408.02 389.12 405.53 389.22 400.31 389.27 397.82 389.38 392.6 389.42 390.12 389.53 384.89 389.58 382.41 389.68 377.19 389.73 374.7 389.83 369.48 389.88 366.99 389.99 361.77 390.04 359.28 390.14 354.06 390.19 351.58 390.29 346.36 390.34 343.87 390.45 338.65 390.5 336.17 390.6 330.94 390.65 328.45 390.75 323.23 390.8 320.75 390.91 315.52 390.96 313.04 391.07 307.82 391.11 305.33 391.22 299.74 359.22 299.74 340.61 414.65" style="opacity:0.30000000000000004"></polygon><polygon points="360.4 305.33 360.4 307.82 391.07 307.82 391.11 305.33 360.4 305.33" style="fill:#fff;opacity:0.2"></polygon><polygon points="359.14 313.04 359.14 315.52 390.91 315.52 390.96 313.04 359.14 313.04" style="fill:#fff;opacity:0.2"></polygon><polygon points="357.88 320.75 357.88 323.23 390.75 323.23 390.8 320.75 357.88 320.75" style="fill:#fff;opacity:0.2"></polygon><polygon points="356.62 328.45 356.62 330.94 390.6 330.94 390.65 328.45 356.62 328.45" style="fill:#fff;opacity:0.2"></polygon><polygon points="355.36 336.17 355.36 338.65 390.45 338.65 390.5 336.17 355.36 336.17" style="fill:#fff;opacity:0.2"></polygon><polygon points="354.1 343.87 354.1 346.36 390.29 346.36 390.34 343.87 354.1 343.87" style="fill:#fff;opacity:0.2"></polygon><polygon points="352.84 351.58 352.84 354.06 390.14 354.06 390.19 351.58 352.84 351.58" style="fill:#fff;opacity:0.2"></polygon><polygon points="351.59 359.28 351.59 361.77 389.99 361.77 390.04 359.28 351.59 359.28" style="fill:#fff;opacity:0.2"></polygon><polygon points="350.33 366.99 350.33 369.48 389.83 369.48 389.88 366.99 350.33 366.99" style="fill:#fff;opacity:0.2"></polygon><polygon points="349.06 374.7 349.06 377.19 389.68 377.19 389.73 374.7 349.06 374.7" style="fill:#fff;opacity:0.2"></polygon><polygon points="347.8 382.41 347.8 384.89 389.53 384.89 389.58 382.41 347.8 382.41" style="fill:#fff;opacity:0.2"></polygon><polygon points="346.54 390.12 346.54 392.6 389.38 392.6 389.42 390.12 346.54 390.12" style="fill:#fff;opacity:0.2"></polygon><polygon points="345.28 397.82 345.28 400.31 389.22 400.31 389.27 397.82 345.28 397.82" style="fill:#fff;opacity:0.2"></polygon><polygon points="344.02 405.53 344.02 408.02 389.07 408.02 389.12 405.53 344.02 405.53" style="fill:#fff;opacity:0.2"></polygon></g><g id="freepik--Smoke--inject-34"><path d="M322.44,315.81a10.62,10.62,0,0,0,6,16.71,7.14,7.14,0,1,0,9,10.64l.1-.15a10.42,10.42,0,0,0,1.43,1.3,10.66,10.66,0,0,0,16.4-12.22,9.93,9.93,0,0,0,3-2.64,9.77,9.77,0,0,0-8.67-15.62,9.78,9.78,0,0,0-17.41-3.92,10.23,10.23,0,0,0-1,1.66A10.6,10.6,0,0,0,322.44,315.81Z" style="fill:#407BFF"></path><path d="M322.44,315.81a10.62,10.62,0,0,0,6,16.71,7.14,7.14,0,1,0,9,10.64l.1-.15a10.42,10.42,0,0,0,1.43,1.3,10.66,10.66,0,0,0,16.4-12.22,9.93,9.93,0,0,0,3-2.64,9.77,9.77,0,0,0-8.67-15.62,9.78,9.78,0,0,0-17.41-3.92,10.23,10.23,0,0,0-1,1.66A10.6,10.6,0,0,0,322.44,315.81Z" style="fill:#fff;isolation:isolate;opacity:0.8"></path><path d="M186.4,372.46a10.64,10.64,0,0,0,6,16.72,7,7,0,0,0-2.45,2.05,7.14,7.14,0,1,0,11.42,8.58l.11-.15a10.54,10.54,0,0,0,1.43,1.31,10.66,10.66,0,0,0,16.39-12.23,9.56,9.56,0,0,0,3-2.64,9.77,9.77,0,0,0-8.67-15.62,9.78,9.78,0,0,0-17.41-3.92,9.84,9.84,0,0,0-1,1.67A10.61,10.61,0,0,0,186.4,372.46Z" style="fill:#407BFF"></path><path d="M186.4,372.46a10.64,10.64,0,0,0,6,16.72,7,7,0,0,0-2.45,2.05,7.14,7.14,0,1,0,11.42,8.58l.11-.15a10.54,10.54,0,0,0,1.43,1.31,10.66,10.66,0,0,0,16.39-12.23,9.56,9.56,0,0,0,3-2.64,9.77,9.77,0,0,0-8.67-15.62,9.78,9.78,0,0,0-17.41-3.92,9.84,9.84,0,0,0-1,1.67A10.61,10.61,0,0,0,186.4,372.46Z" style="fill:#fff;isolation:isolate;opacity:0.8"></path><path d="M147.84,287.85a7.05,7.05,0,0,0-7.76,6.27,7.25,7.25,0,0,0,.28,2.84,4.86,4.86,0,0,0-2-.69,4.74,4.74,0,1,0-1,9.43h.12a6.39,6.39,0,0,0-.25,1.26,7.07,7.07,0,0,0,12.55,5.17,6.28,6.28,0,0,0,2.53.81,6.48,6.48,0,0,0,5.94-10.25,6.5,6.5,0,0,0-3.7-11.26,7,7,0,0,0-1.29,0A7,7,0,0,0,147.84,287.85Z" style="fill:#407BFF"></path><path d="M147.84,287.85a7.05,7.05,0,0,0-7.76,6.27,7.25,7.25,0,0,0,.28,2.84,4.86,4.86,0,0,0-2-.69,4.74,4.74,0,1,0-1,9.43h.12a6.39,6.39,0,0,0-.25,1.26,7.07,7.07,0,0,0,12.55,5.17,6.28,6.28,0,0,0,2.53.81,6.48,6.48,0,0,0,5.94-10.25,6.5,6.5,0,0,0-3.7-11.26,7,7,0,0,0-1.29,0A7,7,0,0,0,147.84,287.85Z" style="fill:#fff;isolation:isolate;opacity:0.8"></path></g><g id="freepik--Robot--inject-34"><polygon points="200.34 416.64 201.32 417.62 202.31 416.64 203.29 417.62 204.27 416.64 205.25 417.62 206.24 416.64 207.22 417.62 208.2 416.64 209.19 417.62 210.17 416.64 211.15 417.62 212.13 416.64 213.12 417.62 214.1 416.64 215.08 417.62 216.06 416.64 217.05 417.62 218.03 416.64 219.01 417.62 220 416.64 220.98 417.62 221.96 416.64 222.95 417.62 223.93 416.64 224.91 417.62 225.89 416.64 226.88 417.62 227.86 416.64 228.84 417.62 229.83 416.64 230.81 417.62 231.79 416.64 232.77 417.62 233.76 416.64 234.74 417.62 235.72 416.64 236.71 417.62 237.69 416.64 238.67 417.62 239.66 416.64 240.64 417.62 241.62 416.64 242.6 417.62 243.59 416.64 244.57 417.62 245.55 416.64 246.53 417.62 247.52 416.64 247.57 416.69 250.29 411.41 198.59 415.52 199.61 417.37 200.34 416.64" style="fill:#263238"></polygon><polygon points="200.34 416.64 201.32 417.62 202.31 416.64 203.29 417.62 204.27 416.64 205.25 417.62 206.24 416.64 207.22 417.62 208.2 416.64 209.19 417.62 210.17 416.64 211.15 417.62 212.13 416.64 213.12 417.62 214.1 416.64 215.08 417.62 216.06 416.64 217.05 417.62 218.03 416.64 219.01 417.62 220 416.64 220.98 417.62 221.96 416.64 222.95 417.62 223.93 416.64 224.91 417.62 225.89 416.64 226.88 417.62 227.86 416.64 228.84 417.62 229.83 416.64 230.81 417.62 231.79 416.64 232.77 417.62 233.76 416.64 234.74 417.62 235.72 416.64 236.71 417.62 237.69 416.64 238.67 417.62 239.66 416.64 240.64 417.62 241.62 416.64 242.6 417.62 243.59 416.64 244.57 417.62 245.55 416.64 246.53 417.62 247.52 416.64 247.57 416.69 250.29 411.41 198.59 415.52 199.61 417.37 200.34 416.64" style="fill:#fff;opacity:0.2"></polygon><circle cx="241.33" cy="258.8" r="11.37" style="fill:#263238"></circle><circle cx="241.33" cy="258.8" r="11.37" style="fill:#fff;opacity:0.2"></circle><circle cx="241.59" cy="258.8" r="6.34" style="fill:#fff;opacity:0.2"></circle><polygon points="239.45 254.62 244.4 262.6 243.74 262.99 238.79 255.01 239.45 254.62" style="fill:#263238"></polygon><circle cx="271.72" cy="260.91" r="11.37" transform="translate(-104.91 268.56) rotate(-45)" style="fill:#263238"></circle><circle cx="271.72" cy="260.91" r="11.37" transform="translate(-104.91 268.56) rotate(-45)" style="fill:#fff;opacity:0.2"></circle><circle cx="271.99" cy="260.91" r="6.34" style="fill:#fff;opacity:0.2"></circle><polygon points="269.85 256.73 274.79 264.71 274.13 265.1 269.19 257.12 269.85 256.73" style="fill:#263238"></polygon><path d="M281.34,335.69a5.82,5.82,0,1,1-5.82-5.82A5.81,5.81,0,0,1,281.34,335.69Z" style="fill:#263238"></path><path d="M281.34,335.69a5.82,5.82,0,1,1-5.82-5.82A5.81,5.81,0,0,1,281.34,335.69Z" style="fill:#fff;opacity:0.4"></path><circle cx="275.66" cy="335.69" r="3.24" style="fill:#fff;opacity:0.2"></circle><path d="M225.81,335.69a5.82,5.82,0,1,1-5.82-5.82A5.82,5.82,0,0,1,225.81,335.69Z" style="fill:#263238"></path><path d="M225.81,335.69a5.82,5.82,0,1,1-5.82-5.82A5.82,5.82,0,0,1,225.81,335.69Z" style="fill:#fff;opacity:0.4"></path><circle cx="220.12" cy="335.69" r="3.24" style="fill:#fff;opacity:0.2"></circle><path d="M241,233.91l-3.69,10.55,11.8,7.32s4.8,10.68,6.16,10.68h7.29l6.33-11.86s8.17-4.55,8.24-4.75S273.54,233,273.54,233Z" style="fill:#263238"></path><path d="M241,233.91l-3.69,10.55,11.8,7.32s4.8,10.68,6.16,10.68h7.29l6.33-11.86s8.17-4.55,8.24-4.75S273.54,233,273.54,233Z" style="fill:#fff;opacity:0.2"></path><path d="M237.29,217.94v10.83l14,5.14,5.41-6.85h6.59l2.38,6.85,12.79-4.22s2.24-11.77,1.84-11.75S260,208.2,260,208.2Z" style="fill:#263238"></path><polygon points="239.53 226.93 238.21 236.68 253.45 241.96 256.8 237.08 261.81 237.08 263.4 241.96 276.32 237.34 277.11 224.95 255.25 221.06 239.53 226.93" style="fill:#263238"></polygon><path d="M237.29,217.94v10.83l14,5.14,5.41-6.85h6.59l2.38,6.85,12.79-4.22s2.24-11.77,1.84-11.75S260,208.2,260,208.2Z" style="fill:#fff;opacity:0.2"></path><path d="M232.92,211.5l2.7,10.61L250,225l6.88-8.67h6.38l4,8,13.43-1.85s4.44-17,3.65-17.78S258,193,258,193Z" style="fill:#263238"></path><path d="M214.6,195.15c0-.4,4-4.33,4-4.33l3.56,7.62,67-1.84s11.21-4.57,10.29-5.78-5.89-18.75-6.47-18.26-60.26-7.74-60.26-7.74l-16,3.29L211,186.5Z" style="fill:#263238"></path><path d="M371.92,143.42s-8.3,2.45-8.3,3.09-.4,4-.4,4a5.67,5.67,0,0,0-5.14-2.41c-3.56.2-4.95,2-4.95,2l.79,2.94h2.84L352.93,157l-.19,3.81s-5.54-3.25-7.12-3.81-8.11,1-8.91,1.61-4.5,3.66-4.19,4.84a.47.47,0,0,0,.24.3c1.38.79,7.71-.4,8.9,0,0,0-4.75,4.75-4.35,5.34s2,.59.39.59h-4.94s-1.39,0-2.18,3.37.2,3.36-.79,4.35-3.16,3.76-3.16,3.76-42.53-8.31-48.07-12.66-12.28-16.91-12.28-16.91,1.05-.48,2.68-1.18h0c5.13-2.22,15.95-6.7,17.3-5.65,1.78,1.39,12.07,3.24,19.59,4.59s26.11-3.12,30.26-4.75,20.64-3.2,20.64-3.2Z" style="fill:#407BFF"></path><path d="M337.7,169.69h-4.94s-1.39,0-2.18,3.37.2,3.36-.79,4.35-3.16,3.76-3.16,3.76-42.53-8.31-48.07-12.66-12.28-16.91-12.28-16.91,1.05-.48,2.68-1.18h0s18.29-.26,22,1.4,18.4,10,21.76,10.75c1.68.39,10.92.69,19.74.89a.47.47,0,0,0,.24.3c1.38.79,7.71-.4,8.9,0,0,0-4.75,4.75-4.35,5.34S339.29,169.69,337.7,169.69Z" style="opacity:0.2"></path><polygon points="315.85 283.98 313.71 294.8 320.81 302.98 322.75 301.79 320.85 297.63 323.38 286.72 315.85 283.98" style="fill:#407BFF"></polygon><polygon points="341.06 279.67 347.2 290.88 341.86 301.03 339.68 301.03 340.67 290.94 333.75 286.4 341.06 279.67" style="fill:#407BFF"></polygon><polygon points="315.94 210.44 319.5 218.98 311.59 222.11 308.03 213.81 315.94 210.44" style="fill:#263238"></polygon><path d="M312.58,186.5l6.92,20-1.78,7.71-8.9,3.56-6.33-1.69-8.73-19.47,2-11.48S307,182.93,312.58,186.5Z" style="fill:#407BFF"></path><path d="M293.76,160.82a101.26,101.26,0,0,1,15.06,4.54c5.94,2.55,6.13,26.49,6.13,26.49l-13.64,4.75-9.1-9.1-9.89-16.42Z" style="fill:#407BFF"></path><path d="M282.32,171.08l9.89,16.42,9.1,9.1L315,191.85s0-.72,0-1.93c-.19-5.74-1.18-22.45-6.09-24.56a101.26,101.26,0,0,0-15.06-4.54l-5.26,4.71Z" style="fill:#fff;opacity:0.30000000000000004"></path><path d="M282.32,171.08l9.89,16.42,9.1,9.1L315,191.85s0-.72,0-1.93l-13.4,4.43c-2.11-1.44-7.74-9.23-7.74-9.23,2.22-2.66,3.78-4.74,2.07-9.49s-7-5.65-7-5.65c0-1-.2-3-.35-4.45Z" style="opacity:0.2"></path><path d="M326,219s-7.52-2.34-12.26,0a17.79,17.79,0,0,0-7.14,6.87L315,285s4,6.6,13.64,5.87,14-11.8,14-11.8S330,225.07,326,219Z" style="fill:#407BFF"></path><path d="M326,219s-7.52-2.34-12.26,0a17.79,17.79,0,0,0-7.14,6.87L315,285s4,6.6,13.64,5.87,14-11.8,14-11.8S330,225.07,326,219Z" style="fill:#fff;opacity:0.30000000000000004"></path><polygon points="332.16 277.89 322.67 279.67 326.03 294.11 325.83 302.42 329.2 302.42 333.75 293.12 332.16 277.89" style="fill:#407BFF"></polygon><polygon points="222.04 181.17 220.01 201.11 230.6 216.28 242.93 216.28 252.5 203.82 266.28 203.82 273.81 216.28 287.6 216.28 296 198.72 287.2 165.36 224.32 167.67 222.04 181.17" style="fill:#407BFF"></polygon><polygon points="222.04 181.17 220.01 201.11 230.6 216.28 242.93 216.28 252.5 203.82 266.28 203.82 273.81 216.28 287.6 216.28 296 198.72 287.2 165.36 224.32 167.67 222.04 181.17" style="fill:#fff;opacity:0.30000000000000004"></polygon><polygon points="194.59 283.98 196.73 294.8 189.63 302.98 187.69 301.79 189.59 297.63 187.06 286.72 194.59 283.98" style="fill:#407BFF"></polygon><polygon points="169.37 279.67 163.24 290.88 168.58 301.03 170.76 301.03 169.77 290.94 176.69 286.4 169.37 279.67" style="fill:#407BFF"></polygon><polygon points="194.49 210.44 190.93 218.98 198.85 222.11 202.41 213.81 194.49 210.44" style="fill:#263238"></polygon><path d="M197.86,186.5l-6.93,20,1.78,7.71,8.91,3.56,6.33-1.69,8.73-19.47-2-11.48S203.4,182.93,197.86,186.5Z" style="fill:#407BFF"></path><path d="M216.68,160.82a101.26,101.26,0,0,0-15.06,4.54c-5.94,2.55-6.14,26.49-6.14,26.49l13.65,4.75,9.1-9.1,9.89-16.42Z" style="fill:#407BFF"></path><path d="M228.12,171.08l-9.89,16.42-9.1,9.1-13.65-4.75s0-.72.05-1.93c.19-5.74,1.18-22.45,6.09-24.56a101.26,101.26,0,0,1,15.06-4.54l5.26,4.71Z" style="fill:#fff;opacity:0.30000000000000004"></path><path d="M228.12,171.08l-9.89,16.42-9.1,9.1-13.65-4.75s0-.72.05-1.93l13.4,4.43c2.11-1.44,7.74-9.23,7.74-9.23-2.22-2.66-3.78-4.74-2.07-9.49s7-5.65,7-5.65c0-1,.2-3,.35-4.45Z" style="opacity:0.2"></path><path d="M184.41,219s7.51-2.34,12.26,0a17.79,17.79,0,0,1,7.14,6.87L195.48,285s-3.95,6.6-13.64,5.87-14.05-11.8-14.05-11.8S180.44,225.07,184.41,219Z" style="fill:#407BFF"></path><path d="M184.41,219s7.51-2.34,12.26,0a17.79,17.79,0,0,1,7.14,6.87L195.48,285s-3.95,6.6-13.64,5.87-14.05-11.8-14.05-11.8S180.44,225.07,184.41,219Z" style="fill:#fff;opacity:0.30000000000000004"></path><polygon points="178.28 277.89 187.77 279.67 184.41 294.11 184.6 302.42 181.24 302.42 176.69 293.12 178.28 277.89" style="fill:#407BFF"></polygon><polygon points="261.63 137.09 264.52 149.31 266.68 149.31 269.72 153.31 258.6 163.76 240.72 154.86 244.04 139.37 261.63 137.09" style="fill:#263238"></polygon><path d="M216.68,160.82s4.12-5.17,5.51-5.37a41,41,0,0,1,4.94,0l7.21-1.18v-1.19l1.53-1.31s18.36,8.27,21.72,8,14.64-9.4,14.64-9.4a8.88,8.88,0,0,1,3.36,1.18,7.33,7.33,0,0,1,1.78,1.88s6.33,1.92,7.52,2.14,5.33,3.81,5.33,3.81S279.15,181.76,276,183.74s-22.86,6.33-25.47,5.74S221.85,171.14,216.68,160.82Z" style="fill:#407BFF"></path><path d="M263.78,128.91a23.79,23.79,0,0,1,2.5,7.75,17.59,17.59,0,0,1-6.46,7.74s-3.43,5.21-5.34,7-7-8.3-7-8.3l7.66-16Z" style="fill:#263238"></path><path d="M263.78,128.91a23.79,23.79,0,0,1,2.5,7.75,17.59,17.59,0,0,1-6.46,7.74s-3.43,5.21-5.34,7-7-8.3-7-8.3l7.66-16Z" style="fill:#fff;opacity:0.2"></path><path d="M262.52,123.17s3.24,3.43,4.16,7.12a11.39,11.39,0,0,1-3.69,3.76,4.2,4.2,0,0,0-4,.66c-2.24,1.52-2.3,5.47,0,8.18,0,0-2.24,5.27-5.53,7.25,0,0-3.83-8-2.71-15.36S262.52,123.17,262.52,123.17Z" style="fill:#263238"></path><path d="M262.52,123.17s3.24,3.43,4.16,7.12a11.39,11.39,0,0,1-3.69,3.76,4.2,4.2,0,0,0-4,.66c-2.24,1.52-2.3,5.47,0,8.18,0,0-2.24,5.27-5.53,7.25,0,0-3.83-8-2.71-15.36S262.52,123.17,262.52,123.17Z" style="fill:#fff;opacity:0.30000000000000004"></path><path d="M265.12,138.73c.13,2.35-1.32,4.35-3.25,4.46s-3.61-1.71-3.74-4.06,1.32-4.35,3.25-4.46S265,136.38,265.12,138.73Z" style="fill:#263238"></path><path d="M265.12,138.73c.13,2.35-1.32,4.35-3.25,4.46s-3.61-1.71-3.74-4.06,1.32-4.35,3.25-4.46S265,136.38,265.12,138.73Z" style="fill:#fff;opacity:0.4"></path><path d="M267.24,121.66s-5.54,4.91-6.92,9.52c0,0-4.36,1.89-4.75,2.86s-1.88,9.28-1.49,11.26a13.47,13.47,0,0,0,2.36,4.42l-3.05,5.66a29.23,29.23,0,0,1-15.54,1l-.09-.19c-.88-1.89-7.95-17.42-7.12-28.52.14-1.75,6.57-7.68,15.4-11.14a43.36,43.36,0,0,1,18.33,0c.73.16,1.45,1.47,2,2.73A24.49,24.49,0,0,1,267.24,121.66Z" style="fill:#407BFF"></path><path d="M267.24,121.66s-5.54,4.91-6.92,9.52c0,0-4.36,1.89-4.75,2.86s-1.88,9.28-1.49,11.26a13.47,13.47,0,0,0,2.36,4.42l-3.05,5.66a29.23,29.23,0,0,1-15.54,1l-.09-.19c-.88-1.89-7.95-17.42-7.12-28.52.14-1.75,6.57-7.68,15.4-11.14a43.36,43.36,0,0,1,18.33,0c.73.16,1.45,1.47,2,2.73A24.49,24.49,0,0,1,267.24,121.66Z" style="fill:#fff;opacity:0.30000000000000004"></path><path d="M264.52,138.8a2.33,2.33,0,1,1-2.44-2.65A2.58,2.58,0,0,1,264.52,138.8Z" style="opacity:0.30000000000000004"></path><path d="M267.24,121.66s-5.54,4.91-6.92,9.52c0,0-4.36,1.89-4.75,2.86s-1.88,9.28-1.49,11.26a13.47,13.47,0,0,0,2.36,4.42l-3.05,5.66a29.23,29.23,0,0,1-15.54,1l-.09-.19c5.07.48,15.31,1,13.78-2.74-2-4.95-4-24.4-3.19-25.78s14.5-10.62,15.76-10.49c.49,0,1.36,1,2.25,2.08A24.49,24.49,0,0,1,267.24,121.66Z" style="opacity:0.2"></path><path d="M239.47,143.42a4.13,4.13,0,0,1-3.8-3.69,4.43,4.43,0,0,1,.77-3.3,3.31,3.31,0,0,1,2.23-1.32,2.69,2.69,0,0,1,.4,0,4.11,4.11,0,0,1,3.8,3.68,4.39,4.39,0,0,1-.76,3.31,3.31,3.31,0,0,1-2.23,1.32A2.83,2.83,0,0,1,239.47,143.42Z" style="opacity:0.2"></path><path d="M239.08,143.1a3.72,3.72,0,0,1-3.43-3.33,4,4,0,0,1,.69-3,3,3,0,0,1,2-1.2l.37,0a3.72,3.72,0,0,1,3.44,3.33,4,4,0,0,1-.7,3,3,3,0,0,1-2,1.19A2.31,2.31,0,0,1,239.08,143.1Z" style="fill:#407BFF"></path><path d="M239.08,143.1a3.72,3.72,0,0,1-3.43-3.33,4,4,0,0,1,.69-3,3,3,0,0,1,2-1.2l.37,0a3.72,3.72,0,0,1,3.44,3.33,4,4,0,0,1-.7,3,3,3,0,0,1-2,1.19A2.31,2.31,0,0,1,239.08,143.1Z" style="fill:#fff;opacity:0.6000000000000001"></path><path d="M241.17,139a2.49,2.49,0,0,1-1.85,3,2.66,2.66,0,0,1-2.69-2.47,2.49,2.49,0,0,1,1.85-3A2.65,2.65,0,0,1,241.17,139Z" style="opacity:0.5"></path><path d="M241.17,139a2.09,2.09,0,0,1-1.54,2.54,2.22,2.22,0,0,1-2.25-2.06,2.08,2.08,0,0,1,1.54-2.54A2.22,2.22,0,0,1,241.17,139Z" style="fill:#407BFF"></path><path d="M245.05,133.56a2,2,0,0,1-1.82-1.77,2.1,2.1,0,0,1,.36-1.58,1.61,1.61,0,0,1,1.07-.64h.2a2,2,0,0,1,1.82,1.77,2.05,2.05,0,0,1-.37,1.58,1.57,1.57,0,0,1-1.07.64Z" style="opacity:0.2"></path><path d="M244.86,133.41a1.79,1.79,0,0,1-1.65-1.6,1.89,1.89,0,0,1,.34-1.44,1.43,1.43,0,0,1,1-.57h.18a1.79,1.79,0,0,1,1.65,1.6,1.91,1.91,0,0,1-.33,1.43,1.48,1.48,0,0,1-1,.58Z" style="fill:#407BFF"></path><path d="M244.86,133.41a1.79,1.79,0,0,1-1.65-1.6,1.89,1.89,0,0,1,.34-1.44,1.43,1.43,0,0,1,1-.57h.18a1.79,1.79,0,0,1,1.65,1.6,1.91,1.91,0,0,1-.33,1.43,1.48,1.48,0,0,1-1,.58Z" style="fill:#fff;opacity:0.6000000000000001"></path><path d="M245.86,131.46a1.19,1.19,0,0,1-.88,1.46,1.27,1.27,0,0,1-1.29-1.18,1.19,1.19,0,0,1,.88-1.46A1.27,1.27,0,0,1,245.86,131.46Z" style="opacity:0.5"></path><path d="M245.86,131.46a1,1,0,0,1-.74,1.22,1.08,1.08,0,0,1-1.08-1,1,1,0,0,1,.75-1.22A1.05,1.05,0,0,1,245.86,131.46Z" style="fill:#407BFF"></path><path d="M233.19,134.05a2,2,0,0,1-1.82-1.77,2.13,2.13,0,0,1,.37-1.59,1.6,1.6,0,0,1,1.07-.63H233a2,2,0,0,1,1.83,1.76,2.13,2.13,0,0,1-.37,1.59,1.6,1.6,0,0,1-1.07.63Z" style="opacity:0.2"></path><path d="M233,133.89a1.78,1.78,0,0,1-1.65-1.6,1.91,1.91,0,0,1,.33-1.43,1.41,1.41,0,0,1,1-.57l.17,0a1.79,1.79,0,0,1,1.65,1.6,1.93,1.93,0,0,1-.33,1.44,1.45,1.45,0,0,1-1,.57Z" style="fill:#407BFF"></path><path d="M233,133.89a1.78,1.78,0,0,1-1.65-1.6,1.91,1.91,0,0,1,.33-1.43,1.41,1.41,0,0,1,1-.57l.17,0a1.79,1.79,0,0,1,1.65,1.6,1.93,1.93,0,0,1-.33,1.44,1.45,1.45,0,0,1-1,.57Z" style="fill:#fff;opacity:0.6000000000000001"></path><path d="M234,131.94a1.2,1.2,0,0,1-.89,1.46,1.27,1.27,0,0,1-1.29-1.18,1.2,1.2,0,0,1,.89-1.46A1.28,1.28,0,0,1,234,131.94Z" style="opacity:0.5"></path><path d="M234,131.94a1,1,0,0,1-.74,1.22,1.05,1.05,0,0,1-1.08-1,1,1,0,0,1,.74-1.22A1.08,1.08,0,0,1,234,131.94Z" style="fill:#407BFF"></path><path d="M245.42,137.76a1.47,1.47,0,0,1-1.36-1.31,1.57,1.57,0,0,1,.28-1.17,1.16,1.16,0,0,1,.79-.47h.14a1.45,1.45,0,0,1,1.35,1.31,1.53,1.53,0,0,1-.27,1.17,1.19,1.19,0,0,1-.79.47Z" style="opacity:0.2"></path><path d="M245.28,137.65a1.33,1.33,0,0,1-1.23-1.19,1.39,1.39,0,0,1,.25-1.06A1.07,1.07,0,0,1,245,135h.13a1.31,1.31,0,0,1,1.22,1.18,1.38,1.38,0,0,1-.25,1.06,1.07,1.07,0,0,1-.71.43Z" style="fill:#407BFF"></path><path d="M245.28,137.65a1.33,1.33,0,0,1-1.23-1.19,1.39,1.39,0,0,1,.25-1.06A1.07,1.07,0,0,1,245,135h.13a1.31,1.31,0,0,1,1.22,1.18,1.38,1.38,0,0,1-.25,1.06,1.07,1.07,0,0,1-.71.43Z" style="fill:#fff;opacity:0.6000000000000001"></path><path d="M246,136.2a.88.88,0,0,1-.66,1.08.93.93,0,0,1-1-.87.88.88,0,0,1,.65-1.08A.93.93,0,0,1,246,136.2Z" style="opacity:0.5"></path><path d="M246,136.2a.75.75,0,0,1-.55.91.81.81,0,0,1-.8-.74.74.74,0,0,1,.55-.9A.79.79,0,0,1,246,136.2Z" style="fill:#407BFF"></path><path d="M233.37,138.05a1.45,1.45,0,0,1-1.35-1.31,1.52,1.52,0,0,1,.27-1.17,1.16,1.16,0,0,1,.79-.47h.15a1.46,1.46,0,0,1,1.35,1.31,1.53,1.53,0,0,1-.27,1.17,1.19,1.19,0,0,1-.8.47Z" style="opacity:0.2"></path><path d="M233.23,137.94a1.32,1.32,0,0,1-1.22-1.19,1.39,1.39,0,0,1,.25-1.06,1.07,1.07,0,0,1,.71-.43h.13a1.31,1.31,0,0,1,1.22,1.18,1.42,1.42,0,0,1-.24,1.06,1.09,1.09,0,0,1-.72.43Z" style="fill:#407BFF"></path><path d="M233.23,137.94a1.32,1.32,0,0,1-1.22-1.19,1.39,1.39,0,0,1,.25-1.06,1.07,1.07,0,0,1,.71-.43h.13a1.31,1.31,0,0,1,1.22,1.18,1.42,1.42,0,0,1-.24,1.06,1.09,1.09,0,0,1-.72.43Z" style="fill:#fff;opacity:0.6000000000000001"></path><path d="M234,136.49a.88.88,0,0,1-.65,1.08.93.93,0,0,1-1-.87.88.88,0,0,1,.66-1.08A.93.93,0,0,1,234,136.49Z" style="opacity:0.5"></path><path d="M234,136.49a.74.74,0,0,1-.55.91.79.79,0,0,1-.79-.74.74.74,0,0,1,.54-.9A.78.78,0,0,1,234,136.49Z" style="fill:#407BFF"></path><path d="M238.52,147.15a.25.25,0,0,1,0-.5l3.66-.05h0a.25.25,0,0,1,.25.25.24.24,0,0,1-.24.25l-3.67.05Z" style="opacity:0.30000000000000004"></path><path d="M238.89,148.38a.25.25,0,0,1,0-.5l3.66,0h0a.25.25,0,0,1,.25.25.24.24,0,0,1-.24.25l-3.66,0Z" style="opacity:0.30000000000000004"></path><path d="M239.26,149.61a.25.25,0,0,1-.25-.25.25.25,0,0,1,.25-.25l3.66-.05h0a.26.26,0,0,1,.25.25.25.25,0,0,1-.25.25l-3.66.05Z" style="opacity:0.30000000000000004"></path><path d="M239.63,150.84a.26.26,0,0,1-.25-.25.25.25,0,0,1,.25-.25l3.66-.05h0a.26.26,0,0,1,.25.25.25.25,0,0,1-.25.25l-3.66.05Z" style="opacity:0.30000000000000004"></path><path d="M240,152.07a.26.26,0,0,1-.25-.25.25.25,0,0,1,.25-.25l3.66,0h0a.25.25,0,0,1,.25.25.25.25,0,0,1-.25.25l-3.66,0Z" style="opacity:0.30000000000000004"></path><circle cx="224.32" cy="178.84" r="7.66" transform="translate(-51.37 99.46) rotate(-22.5)" style="fill:#407BFF"></circle><circle cx="224.32" cy="178.84" r="7.66" transform="translate(-51.37 99.46) rotate(-22.5)" style="fill:#fff;opacity:0.5"></circle><path d="M230.6,178.84a6.28,6.28,0,1,1-6.28-6.28A6.28,6.28,0,0,1,230.6,178.84Z" style="opacity:0.2"></path><circle cx="287.36" cy="178.84" r="7.66" transform="translate(-46.57 123.58) rotate(-22.5)" style="fill:#407BFF"></circle><circle cx="287.36" cy="178.84" r="7.66" transform="translate(-46.57 123.58) rotate(-22.5)" style="fill:#fff;opacity:0.5"></circle><path d="M293.64,178.84a6.28,6.28,0,1,1-6.28-6.28A6.28,6.28,0,0,1,293.64,178.84Z" style="opacity:0.2"></path><polygon points="236.03 240.71 250 246.84 254.03 256.33 262.34 256.33 265.31 248.52 279.7 240.71 282.32 247.83 271.24 253.17 264.12 271.17 250 271.17 246.91 254.44 232.92 247.43 236.03 240.71" style="fill:#263238"></polygon><polygon points="226.6 255.94 231.62 251.59 237.29 263.72 246.65 271.17 228.12 331.5 215.53 331.5 226.6 255.94" style="fill:#263238"></polygon><polygon points="267.48 273.21 273.54 269.52 282.32 254.44 287.36 257.92 280.32 331.5 270.65 331.5 267.48 273.21" style="fill:#263238"></polygon><polygon points="270.38 338.09 267.48 350.22 270.38 410.09 277.42 410.09 280.32 339.14 270.38 338.09" style="fill:#263238"></polygon><polygon points="214.09 337.99 209.31 349.51 202.69 409.08 209.64 410.19 223.74 340.6 214.09 337.99" style="fill:#263238"></polygon><polygon points="210.71 401.91 227.87 410.09 250.29 411.41 247.65 415.52 198.59 415.52 202.95 401.91 210.71 401.91" style="fill:#263238"></polygon><path d="M273,323.19l-1.3,23.54h11.37s3.78-18,2.2-23.54Z" style="fill:#263238"></path><path d="M273,323.19l-1.3,23.54h11.37s3.78-18,2.2-23.54Z" style="fill:#fff;opacity:0.2"></path><rect x="278" y="325.76" width="1" height="17.81" transform="matrix(0.95, -0.32, 0.32, 0.95, -92.24, 106.37)" style="fill:#263238"></rect><rect x="269.8" y="334.16" width="19.11" height="1" transform="translate(-147.23 424.45) rotate(-62.03)" style="fill:#263238"></rect><path d="M220,322.05l-6.74,22.75,11.55,1.29s8-17.08,7.64-22.65Z" style="fill:#263238"></path><path d="M220,322.05l-6.74,22.75,11.55,1.29s8-17.08,7.64-22.65Z" style="fill:#fff;opacity:0.2"></path><rect x="222.08" y="326.05" width="1" height="15.64" transform="translate(-65.37 54.42) rotate(-12.17)" style="fill:#263238"></rect><rect x="213.88" y="333.83" width="20.21" height="1" transform="translate(-171.23 258.49) rotate(-45.32)" style="fill:#263238"></rect><polygon points="208.54 394.75 214.08 394.75 214.08 400.48 227.23 408.72 221.2 411.41 206.56 405.33 208.54 394.75" style="fill:#263238"></polygon><polygon points="208.54 394.75 214.08 394.75 214.08 400.48 227.23 408.72 221.2 411.41 206.56 405.33 208.54 394.75" style="fill:#fff;opacity:0.2"></polygon><polygon points="267.38 416.64 268.36 417.62 269.35 416.64 270.33 417.62 271.31 416.64 272.3 417.62 273.28 416.64 274.26 417.62 275.25 416.64 276.23 417.62 277.21 416.64 278.19 417.62 279.18 416.64 280.16 417.62 281.14 416.64 282.13 417.62 283.11 416.64 284.09 417.62 285.07 416.64 286.06 417.62 287.04 416.64 288.02 417.62 289 416.64 289.99 417.62 290.97 416.64 291.95 417.62 292.94 416.64 293.92 417.62 294.9 416.64 295.89 417.62 296.87 416.64 297.85 417.62 298.83 416.64 299.82 417.62 300.8 416.64 301.78 417.62 302.76 416.64 303.75 417.62 304.73 416.64 305.71 417.62 306.7 416.64 307.68 417.62 308.66 416.64 309.65 417.62 310.63 416.64 311.61 417.62 312.6 416.64 313.58 417.62 314.56 416.64 314.62 416.69 317.33 411.41 265.64 415.52 266.65 417.37 267.38 416.64" style="fill:#263238"></polygon><polygon points="267.38 416.64 268.36 417.62 269.35 416.64 270.33 417.62 271.31 416.64 272.3 417.62 273.28 416.64 274.26 417.62 275.25 416.64 276.23 417.62 277.21 416.64 278.19 417.62 279.18 416.64 280.16 417.62 281.14 416.64 282.13 417.62 283.11 416.64 284.09 417.62 285.07 416.64 286.06 417.62 287.04 416.64 288.02 417.62 289 416.64 289.99 417.62 290.97 416.64 291.95 417.62 292.94 416.64 293.92 417.62 294.9 416.64 295.89 417.62 296.87 416.64 297.85 417.62 298.83 416.64 299.82 417.62 300.8 416.64 301.78 417.62 302.76 416.64 303.75 417.62 304.73 416.64 305.71 417.62 306.7 416.64 307.68 417.62 308.66 416.64 309.65 417.62 310.63 416.64 311.61 417.62 312.6 416.64 313.58 417.62 314.56 416.64 314.62 416.69 317.33 411.41 265.64 415.52 266.65 417.37 267.38 416.64" style="fill:#fff;opacity:0.2"></polygon><polygon points="277.76 401.91 294.91 410.09 317.33 411.41 314.69 415.52 265.64 415.52 269.99 401.91 277.76 401.91" style="fill:#263238"></polygon><polygon points="275.58 394.75 281.12 394.75 281.12 400.48 294.27 408.72 288.24 411.41 273.6 405.33 275.58 394.75" style="fill:#263238"></polygon><polygon points="275.58 394.75 281.12 394.75 281.12 400.48 294.27 408.72 288.24 411.41 273.6 405.33 275.58 394.75" style="fill:#fff;opacity:0.2"></polygon></g></svg>